<?xml version="1.0" encoding="utf-8"?>
<svg xmlns="http://www.w3.org/2000/svg" viewBox="186.5074 199.4553 17.0103 18.0055" width="17.0103px" height="18.0055px">
    <defs>
        <clipPath id="SVGtiT3XdAl">
            <path fill="#fff" d="M0 0h223v236H0z"/>
        </clipPath>
        <linearGradient id="SVGGKEA9cdB">
            <stop offset="0" stop-color="#5794e8"/>
            <stop offset="1" stop-color="#173d71"/>
        </linearGradient>
        <linearGradient id="SVGqLCAacqj">
            <stop offset="0" stop-color="#5794e8"/>
            <stop offset="1" stop-color="#5794e8" stop-opacity="0"/>
        </linearGradient>
    </defs>
    <g clip-path="url(#SVGtiT3XdAl)" transform="matrix(0.07659701257944107, 0, 0, 0.07659701257944107, 186.50697326660156, 199.4552764892578)" style="">
        <path fill="url(#SVGGKEA9cdB)" d="m222.08 39.192l-8.019 125.92L137.39-.008zm-53.105 162.82l-57.933 33.056l-57.934-33.056l11.783-28.556h92.301zm-57.933-139.34l30.357 73.803H80.684zm-103.1 102.44L.005 39.192L84.695 0z"/>
        <path fill="url(#SVGqLCAacqj)" d="m222.08 39.192l-8.019 125.92L137.39-.008zm-53.105 162.82l-57.933 33.056l-57.934-33.056l11.783-28.556h92.301zm-57.933-139.34l30.357 73.803H80.684zm-103.1 102.44L.005 39.192L84.695 0z"/>
    </g>
</svg>